<svg xmlns="http://www.w3.org/2000/svg" viewBox="0 0 513.9 150" fill="#fff"><g id="Camada_2" data-name="Camada 2"><g id="Camada_1-2" data-name="Camada 1"><path d="M222.5,15.8h29.9V118c0,19.7-16.8,26-38.6,26-21.3,0-36.2-6.3-36.2-26.2v-26h27.5v28.6c0,5.2,3,7.9,8.7,7.9s8.7-2.6,8.7-7.9V15.8Z"/><path d="M311.6,140.1V90.9H294.1v49.2H264.2V36.4c0-15,16.8-24.3,38.6-24.3,21.3,0,38.2,9.3,38.2,24.3V140.1Zm0-104.4c0-5.2-3-7.9-8.7-7.9s-8.7,2.6-8.7,7.9V74.6h17.5V35.7Z"/><path d="M369.4,140.1,347.9,15.8h29.7l13.8,101.3L405.7,15.8h28.5L411.7,140.1Z"/><path d="M437.1,38.1c0-19.7,16.8-26,38.6-26,21.3,0,38.2,6.3,38.2,26.2v79.5c0,19.9-16.9,26.2-38.2,26.2-21.8,0-38.6-6.3-38.6-26V38.1Zm47.4-2.4c0-5.2-3-7.9-8.7-7.9s-8.7,2.6-8.7,7.9v84.7c0,5.2,3,7.9,8.7,7.9s8.7-2.6,8.7-7.9Z"/><path d="M75,150a75,75,0,1,1,75-75A75.09,75.09,0,0,1,75,150ZM75,11.9a63,63,0,1,0,63,63A63.06,63.06,0,0,0,75,11.9Z"/><circle cx="98.9" cy="101.5" r="16.3"/><circle cx="65.2" cy="106.5" r="11.2"/></g></g></svg>